<?xml version="1.0" standalone="no"?>
<!DOCTYPE svg PUBLIC "-//W3C//DTD SVG 20010904//EN"
 "http://www.w3.org/TR/2001/REC-SVG-20010904/DTD/svg10.dtd">
<svg version="1.0" xmlns="http://www.w3.org/2000/svg"
 width="1001.000000pt" height="1001.000000pt" viewBox="0 0 1001.000000 1001.000000"
 preserveAspectRatio="xMidYMid meet">
<metadata>
Created by potrace 1.11, written by Peter Selinger 2001-2013
</metadata>
<g transform="translate(0.000000,1001.000000) scale(0.100000,-0.100000)"
fill="#000000" stroke="none">
<path d="M4575 9994 c-415 -39 -780 -114 -1155 -240 -854 -286 -1619 -799
-2204 -1479 -38 -44 -78 -91 -90 -105 -12 -14 -67 -86 -122 -160 -393 -524
-673 -1103 -838 -1730 -58 -222 -116 -537 -131 -715 -4 -38 -8 -75 -10 -82 -9
-28 -19 -282 -19 -468 0 -346 21 -580 79 -915 142 -806 534 -1643 1070 -2285
691 -828 1608 -1404 2650 -1663 105 -27 154 -37 255 -57 57 -11 198 -35 245
-41 28 -3 57 -7 65 -9 8 -2 51 -6 95 -10 44 -4 89 -9 100 -11 30 -6 338 -18
445 -17 105 0 398 12 445 18 17 2 55 7 85 10 655 68 1312 275 1884 594 232
130 355 209 579 374 l109 80 311 -311 312 -310 398 398 c218 219 397 401 397
406 0 5 -138 147 -306 315 l-306 307 75 98 c401 530 688 1121 857 1769 35 136
83 363 96 454 5 39 11 78 18 126 9 53 26 226 34 325 14 196 6 711 -13 855 -3
17 -11 86 -20 155 -81 651 -316 1325 -667 1910 -88 147 -262 401 -353 516
-182 229 -388 448 -595 634 -52 47 -99 90 -106 95 -6 6 -59 48 -118 95 -465
369 -971 645 -1526 833 -272 92 -577 165 -867 206 -143 21 -186 26 -363 40
-149 13 -640 9 -795 -5z"/>
</g>
</svg>
